# xmcd
#
# Track frame offsets:
#	150
#	15838
#	26762
#	39690
#	53872
#	65091
#	77482
#	90612
#	102935
#	111100
#
# Disc length: 1664 seconds
#
# Revision: 0
# Processed by: cddbd v1.5.2PL0 Copyright (c) Steve Scherf et al.
# Submitted via: EasyCDDAExtractor 10.2.0.1
#
DISCID=76067e0a
DTITLE=Various Artist - Sims Records-Vol. 23
DYEAR=2005
DGENRE=Gospel
TTITLE0=Steve Warren - Somewhere Between Mercy And Grace
TTITLE1=Jerry Trammell - Tie A Knot In The Rope
TTITLE2=Ron Campbell - Welcome Home, Son
TTITLE3=The Pomeroys - Hem Of His Garment
TTITLE4=Children Of Faith - Not Bound
TTITLE5=Jennifer Collins - Won't You Call Out To Jesus
TTITLE6=Sharon Yates - Blessings Of The Lord
TTITLE7=God's Anointed - That Blessed Lamb
TTITLE8=Zella Lester - Made Up Mind
TTITLE9=David Nichols - The Question
EXTD=
EXTT0=
EXTT1=
EXTT2=
EXTT3=
EXTT4=
EXTT5=
EXTT6=
EXTT7=
EXTT8=
EXTT9=
PLAYORDER=
